<svg width="24" height="24" viewBox="0 0 24 24" fill="none" xmlns="http://www.w3.org/2000/svg">
<g clip-path="url(#clip0_222_649)">
<path d="M14.5714 16.2885C15.0261 16.2885 15.4621 16.1079 15.7836 15.7864C16.1051 15.4649 16.2857 15.0289 16.2857 14.5742" stroke="white" stroke-width="1.5" stroke-linecap="round" stroke-linejoin="round"/>
<path d="M7.71423 16.2891H10.2857" stroke="white" stroke-width="1.5" stroke-linecap="round" stroke-linejoin="round"/>
<path d="M16.2857 7.71875V10.2902" stroke="white" stroke-width="1.5" stroke-linecap="round" stroke-linejoin="round"/>
<path d="M9.42852 7.71875C8.97386 7.71875 8.53783 7.89936 8.21634 8.22085C7.89485 8.54234 7.71423 8.97838 7.71423 9.43304" stroke="white" stroke-width="1.5" stroke-linecap="round" stroke-linejoin="round"/>
<path d="M0.857117 2.57366C0.857117 2.119 1.03773 1.68297 1.35922 1.36148C1.68071 1.03999 2.11675 0.859375 2.5714 0.859375H14.5714C15.0261 0.859375 15.4621 1.03999 15.7836 1.36148C16.1051 1.68297 16.2857 2.119 16.2857 2.57366V7.71652H21.4285C21.8832 7.71652 22.3192 7.89713 22.6407 8.21862C22.9622 8.54011 23.1428 8.97615 23.1428 9.4308V21.4308C23.1428 21.8855 22.9622 22.3215 22.6407 22.643C22.3192 22.9645 21.8832 23.1451 21.4285 23.1451H9.42855C8.97389 23.1451 8.53785 22.9645 8.21636 22.643C7.89487 22.3215 7.71426 21.8855 7.71426 21.4308V16.2879H2.5714C2.11675 16.2879 1.68071 16.1073 1.35922 15.7858C1.03773 15.4644 0.857117 15.0283 0.857117 14.5737V2.57366Z" stroke="white" stroke-width="1.5" stroke-linecap="round" stroke-linejoin="round"/>
<path d="M13.7142 7.71875H16.2857" stroke="white" stroke-width="1.5" stroke-linecap="round" stroke-linejoin="round"/>
<path d="M7.71423 13.7188V16.2902" stroke="white" stroke-width="1.5" stroke-linecap="round" stroke-linejoin="round"/>
</g>
<defs>
<clipPath id="clip0_222_649">
<rect width="24" height="24" fill="white"/>
</clipPath>
</defs>
</svg>
