<svg width="24" height="24" viewBox="0 0 24 24" fill="none" xmlns="http://www.w3.org/2000/svg">
<g clip-path="url(#clip0_443_55)">
<path d="M12 17.1719V18.9033" stroke="white" stroke-width="1.5" stroke-linecap="round" stroke-linejoin="round"/>
<path d="M12 8.58594V10.1974" stroke="white" stroke-width="1.5" stroke-linecap="round" stroke-linejoin="round"/>
<path d="M12 23.1247C18 23.1247 22.2857 20.999 22.2857 16.2675C22.2857 11.1247 19.7143 7.69612 14.5714 5.12469L16.5943 2.51897C16.6971 2.34801 16.7528 2.15291 16.7559 1.95346C16.7589 1.75401 16.7092 1.5573 16.6118 1.38325C16.5143 1.20921 16.3725 1.06403 16.2009 0.962425C16.0292 0.860819 15.8338 0.806401 15.6343 0.804688H8.36572C8.16626 0.806401 7.97079 0.860819 7.79913 0.962425C7.62747 1.06403 7.48573 1.20921 7.38827 1.38325C7.2908 1.5573 7.24108 1.75401 7.24415 1.95346C7.24721 2.15291 7.30296 2.34801 7.40572 2.51897L9.42858 5.14183C4.28572 7.7304 1.71429 11.159 1.71429 16.3018C1.71429 20.999 6.00001 23.1247 12 23.1247Z" stroke="white" stroke-width="1.5" stroke-linecap="round" stroke-linejoin="round"/>
<path d="M10.2857 16.3858C10.4949 16.6341 10.7582 16.8312 11.0553 16.9619C11.3525 17.0927 11.6757 17.1536 12 17.1401C12.4958 17.1739 12.9854 17.0142 13.3658 16.6945C13.7463 16.3748 13.9879 15.92 14.04 15.4258C13.9879 14.9316 13.7463 14.4769 13.3658 14.1572C12.9854 13.8375 12.4958 13.6777 12 13.7115C11.5042 13.7453 11.0147 13.5856 10.6342 13.2659C10.2538 12.9462 10.0121 12.4914 9.96002 11.9972C10.0079 11.5013 10.2484 11.044 10.6299 10.7234C11.0113 10.4029 11.5033 10.2447 12 10.283C12.3187 10.2635 12.6377 10.3148 12.9341 10.4334C13.2305 10.552 13.497 10.7348 13.7143 10.9687" stroke="white" stroke-width="1.5" stroke-linecap="round" stroke-linejoin="round"/>
</g>
<defs>
<clipPath id="clip0_443_55">
<rect width="24" height="24" fill="white"/>
</clipPath>
</defs>
</svg>
