<svg width="24" height="24" viewBox="0 0 24 24" fill="none" xmlns="http://www.w3.org/2000/svg">
<g clip-path="url(#clip0_219_36)">
<path d="M14.5714 8.5731C15.5182 8.5731 16.2857 7.80559 16.2857 6.85882C16.2857 5.91204 15.5182 5.14453 14.5714 5.14453C13.6247 5.14453 12.8571 5.91204 12.8571 6.85882C12.8571 7.80559 13.6247 8.5731 14.5714 8.5731Z" stroke="white" stroke-width="1.5" stroke-linecap="round" stroke-linejoin="round"/>
<path d="M7.71429 17.144C8.18767 17.144 8.57143 16.7602 8.57143 16.2868C8.57143 15.8134 8.18767 15.4297 7.71429 15.4297C7.2409 15.4297 6.85714 15.8134 6.85714 16.2868C6.85714 16.7602 7.2409 17.144 7.71429 17.144Z" stroke="white" stroke-width="1.5" stroke-linecap="round" stroke-linejoin="round"/>
<path d="M7.71429 11.1473C8.66106 11.1473 9.42857 10.3798 9.42857 9.43304C9.42857 8.48626 8.66106 7.71875 7.71429 7.71875C6.76751 7.71875 6 8.48626 6 9.43304C6 10.3798 6.76751 11.1473 7.71429 11.1473Z" stroke="white" stroke-width="1.5" stroke-linecap="round" stroke-linejoin="round"/>
<path d="M16.32 21.0537C16.3009 20.7211 16.1853 20.4014 15.9875 20.1335C15.7896 19.8656 15.5179 19.6611 15.2057 19.5451C14.4304 19.2903 13.7713 18.7672 13.3471 18.0699C12.9229 17.3726 12.7614 16.5469 12.8916 15.7412C13.0217 14.9355 13.435 14.2026 14.0572 13.6743C14.6793 13.1461 15.4695 12.8571 16.2857 12.8594H19.4914C20.0413 12.8609 20.5834 12.7302 21.0721 12.4782C21.5608 12.2263 21.9817 11.8605 22.2994 11.4117C22.6171 10.963 22.8221 10.4444 22.8973 9.89971C22.9725 9.35505 22.9156 8.80029 22.7314 8.28224C22.0496 6.35704 20.8517 4.65627 19.2688 3.36574C17.6858 2.07522 15.7786 1.24458 13.7555 0.964588C11.7324 0.684594 9.67125 0.966012 7.79727 1.7781C5.92328 2.59018 4.30854 3.90169 3.12945 5.56934C1.95037 7.23698 1.2523 9.19661 1.11151 11.2341C0.970726 13.2716 1.39264 15.3087 2.33115 17.1226C3.26967 18.9366 4.68869 20.4577 6.43317 21.5198C8.17765 22.5819 10.1805 23.1442 12.2229 23.1451C13.2315 23.1479 14.2355 23.0094 15.2057 22.7337C15.5621 22.6338 15.8706 22.4092 16.0752 22.1008C16.2797 21.7924 16.3666 21.4208 16.32 21.0537V21.0537Z" stroke="white" stroke-width="1.5" stroke-linecap="round" stroke-linejoin="round"/>
</g>
<defs>
<clipPath id="clip0_219_36">
<rect width="24" height="24" fill="white"/>
</clipPath>
</defs>
</svg>
