<svg width="24" height="24" viewBox="0 0 24 24" fill="none" xmlns="http://www.w3.org/2000/svg">
<path d="M12 22.9542C13.1256 22.9542 14.2402 22.7325 15.2801 22.3017C16.3201 21.8709 17.265 21.2396 18.0609 20.4436C18.8568 19.6477 19.4882 18.7028 19.919 17.6629C20.3497 16.6229 20.5714 15.5084 20.5714 14.3827V9.61702C20.5715 7.51134 19.7966 5.47929 18.3943 3.90845" stroke="white" stroke-width="1.5" stroke-linecap="round" stroke-linejoin="round"/>
<path d="M3.42847 11.52V14.3829C3.42789 16.0702 3.92536 17.7202 4.85852 19.1261C5.79168 20.5319 7.11902 21.631 8.67418 22.2857" stroke="white" stroke-width="1.5" stroke-linecap="round" stroke-linejoin="round"/>
<path d="M16.2856 2.19423C14.3169 1.05764 11.9773 0.749632 9.78158 1.33796C7.58581 1.92628 5.71367 3.36275 4.577 5.33138C4.10896 6.13971 3.77873 7.02032 3.59985 7.93709" stroke="white" stroke-width="1.5" stroke-linecap="round" stroke-linejoin="round"/>
<path d="M11.1084 6.01708C11.7389 5.88618 12.3908 5.89847 13.0159 6.05305C13.641 6.20762 14.2235 6.50053 14.7203 6.91018C15.2172 7.31984 15.6157 7.83579 15.8866 8.41999C16.1575 9.00419 16.2939 9.64175 16.2855 10.2856V13.0456" stroke="white" stroke-width="1.5" stroke-linecap="round" stroke-linejoin="round"/>
<path d="M15.1885 16.6456C14.6052 17.2953 13.8374 17.7514 12.9878 17.9527C12.1382 18.1541 11.2474 18.0912 10.4345 17.7724C9.62168 17.4536 8.9256 16.8941 8.43944 16.1689C7.95328 15.4436 7.70023 14.5872 7.71417 13.7141V10.2856C7.71091 9.6968 7.82756 9.11352 8.05703 8.57129" stroke="white" stroke-width="1.5" stroke-linecap="round" stroke-linejoin="round"/>
<path d="M12 10.4741V13.337" stroke="white" stroke-width="1.5" stroke-linecap="round" stroke-linejoin="round"/>
</svg>
