<svg width="30" height="30" viewBox="0 0 30 30" fill="none" xmlns="http://www.w3.org/2000/svg">
<g clip-path="url(#clip0_344_19853)">
<path d="M3.21415 12.8572H5.357C5.64116 12.8572 5.91369 12.9701 6.11462 13.171C6.31555 13.3719 6.42843 13.6444 6.42843 13.9286V19.2857C6.42843 19.5699 6.31555 19.8424 6.11462 20.0434C5.91369 20.2443 5.64116 20.3572 5.357 20.3572H3.21415C2.64583 20.3572 2.10078 20.1314 1.69892 19.7295C1.29705 19.3277 1.07129 18.7826 1.07129 18.2143V15C1.07129 14.4317 1.29705 13.8867 1.69892 13.4848C2.10078 13.0829 2.64583 12.8572 3.21415 12.8572V12.8572Z" stroke="white" stroke-width="1.5" stroke-linecap="round" stroke-linejoin="round"/>
<path d="M26.7859 20.3572H24.643C24.3588 20.3572 24.0863 20.2443 23.8854 20.0434C23.6844 19.8424 23.5716 19.5699 23.5716 19.2857V13.9286C23.5716 13.6444 23.6844 13.3719 23.8854 13.171C24.0863 12.9701 24.3588 12.8572 24.643 12.8572H26.7859C27.3542 12.8572 27.8992 13.0829 28.3011 13.4848C28.7029 13.8867 28.9287 14.4317 28.9287 15V18.2143C28.9287 18.7826 28.7029 19.3277 28.3011 19.7295C27.8992 20.1314 27.3542 20.3572 26.7859 20.3572V20.3572Z" stroke="white" stroke-width="1.5" stroke-linecap="round" stroke-linejoin="round"/>
<path d="M20.3574 26.25C21.4941 26.25 22.5842 25.7985 23.3879 24.9948C24.1916 24.191 24.6431 23.101 24.6431 21.9643V20.3572" stroke="white" stroke-width="1.5" stroke-linecap="round" stroke-linejoin="round"/>
<path d="M17.678 23.5715C18.3884 23.5715 19.0697 23.8537 19.572 24.3561C20.0744 24.8584 20.3566 25.5397 20.3566 26.2501C20.3566 26.9605 20.0744 27.6418 19.572 28.1441C19.0697 28.6465 18.3884 28.9287 17.678 28.9287H14.4637C13.7533 28.9287 13.072 28.6465 12.5697 28.1441C12.0674 27.6418 11.7852 26.9605 11.7852 26.2501C11.7852 25.5397 12.0674 24.8584 12.5697 24.3561C13.072 23.8537 13.7533 23.5715 14.4637 23.5715H17.678Z" stroke="white" stroke-width="1.5" stroke-linecap="round" stroke-linejoin="round"/>
<path d="M5.35742 12.8572V10.7144C5.35742 8.15695 6.37336 5.70425 8.18175 3.89586C9.99014 2.08747 12.4428 1.07153 15.0003 1.07153C17.5577 1.07153 20.0104 2.08747 21.8188 3.89586C23.6272 5.70425 24.6431 8.15695 24.6431 10.7144V12.8572" stroke="white" stroke-width="1.5" stroke-linecap="round" stroke-linejoin="round"/>
<path d="M11.7852 8.57153V11.7858" stroke="white" stroke-width="1.5" stroke-linecap="round" stroke-linejoin="round"/>
<path d="M18.2139 8.57153V11.7858" stroke="white" stroke-width="1.5" stroke-linecap="round" stroke-linejoin="round"/>
<path d="M11.7852 16.0715C11.7852 18.9215 18.2137 18.9215 18.2137 16.0715" stroke="white" stroke-width="1.5" stroke-linecap="round" stroke-linejoin="round"/>
</g>
<defs>
<clipPath id="clip0_344_19853">
<rect width="30" height="30" fill="white"/>
</clipPath>
</defs>
</svg>
