<svg width="24" height="24" viewBox="0 0 24 24" fill="none" xmlns="http://www.w3.org/2000/svg">
<path d="M17.1426 2.57153H6.85686C5.91009 2.57153 5.14258 3.33905 5.14258 4.28582V12.8572C5.14258 13.804 5.91009 14.5715 6.85686 14.5715H17.1426C18.0894 14.5715 18.8569 13.804 18.8569 12.8572V4.28582C18.8569 3.33905 18.0894 2.57153 17.1426 2.57153Z" stroke="white" stroke-width="1.5" stroke-linecap="round" stroke-linejoin="round"/>
<path d="M5.14314 7.71436H2.57171C2.11705 7.71436 1.68102 7.89497 1.35952 8.21646C1.03803 8.53795 0.857422 8.97398 0.857422 9.42864V17.1429C0.857422 17.5976 1.03803 18.0336 1.35952 18.3551C1.68102 18.6766 2.11705 18.8572 2.57171 18.8572H21.4289C21.8835 18.8572 22.3195 18.6766 22.641 18.3551C22.9625 18.0336 23.1431 17.5976 23.1431 17.1429V9.42864C23.1431 8.97398 22.9625 8.53795 22.641 8.21646C22.3195 7.89497 21.8835 7.71436 21.4289 7.71436H18.8574" stroke="white" stroke-width="1.5" stroke-linecap="round" stroke-linejoin="round"/>
<path d="M6.85714 18.8572L6 23.1429" stroke="white" stroke-width="1.5" stroke-linecap="round" stroke-linejoin="round"/>
<path d="M17.1426 18.8572L17.9997 23.1429" stroke="white" stroke-width="1.5" stroke-linecap="round" stroke-linejoin="round"/>
</svg>
