<svg width="24" height="24" viewBox="0 0 24 24" fill="none" xmlns="http://www.w3.org/2000/svg">
<g clip-path="url(#clip0_311_13161)">
<path d="M21.4287 2.57129L15.583 8.417" stroke="white" stroke-width="1.5" stroke-linecap="round" stroke-linejoin="round"/>
<path d="M2.57153 2.57129L8.41725 8.417" stroke="white" stroke-width="1.5" stroke-linecap="round" stroke-linejoin="round"/>
<path d="M2.57153 21.4282L8.41725 15.5825" stroke="white" stroke-width="1.5" stroke-linecap="round" stroke-linejoin="round"/>
<path d="M21.4287 21.4282L15.583 15.5825" stroke="white" stroke-width="1.5" stroke-linecap="round" stroke-linejoin="round"/>
<path d="M12 23.1426C18.1541 23.1426 23.1429 18.1538 23.1429 11.9998C23.1429 5.84576 18.1541 0.856934 12 0.856934C5.846 0.856934 0.857178 5.84576 0.857178 11.9998C0.857178 18.1538 5.846 23.1426 12 23.1426Z" stroke="white" stroke-width="1.5" stroke-linecap="round" stroke-linejoin="round"/>
<path d="M12 17.0572C14.793 17.0572 17.0572 14.793 17.0572 12C17.0572 9.20703 14.793 6.94287 12 6.94287C9.20703 6.94287 6.94287 9.20703 6.94287 12C6.94287 14.793 9.20703 17.0572 12 17.0572Z" stroke="white" stroke-width="1.5" stroke-linecap="round" stroke-linejoin="round"/>
</g>
<defs>
<clipPath id="clip0_311_13161">
<rect width="24" height="24" fill="white"/>
</clipPath>
</defs>
</svg>
