<svg width="30" height="30" viewBox="0 0 30 30" fill="none" xmlns="http://www.w3.org/2000/svg">
<path d="M9.64296 27.8577C14.3768 27.8577 18.2144 24.0201 18.2144 19.2863C18.2144 14.5524 14.3768 10.7148 9.64296 10.7148C4.90909 10.7148 1.07153 14.5524 1.07153 19.2863C1.07153 24.0201 4.90909 27.8577 9.64296 27.8577Z" stroke="white" stroke-width="1.5" stroke-linecap="round" stroke-linejoin="round"/>
<path d="M20.3573 27.8577C25.0912 27.8577 28.9287 24.0201 28.9287 19.2863C28.9287 14.5524 25.0912 10.7148 20.3573 10.7148C15.6234 10.7148 11.7859 14.5524 11.7859 19.2863C11.7859 24.0201 15.6234 27.8577 20.3573 27.8577Z" stroke="white" stroke-width="1.5" stroke-linecap="round" stroke-linejoin="round"/>
<path d="M15.0001 19.2874C19.734 19.2874 23.5715 15.4498 23.5715 10.716C23.5715 5.98209 19.734 2.14453 15.0001 2.14453C10.2662 2.14453 6.42867 5.98209 6.42867 10.716C6.42867 15.4498 10.2662 19.2874 15.0001 19.2874Z" stroke="white" stroke-width="1.5" stroke-linecap="round" stroke-linejoin="round"/>
</svg>
