<svg width="45" height="45" viewBox="0 0 45 45" fill="none" xmlns="http://www.w3.org/2000/svg">
<g clip-path="url(#clip0_879_208)">
<path d="M15.5768 20.7695H9.51903C8.79783 20.7695 8.1847 20.5172 7.67984 20.0123C7.17527 19.5074 6.92265 18.8945 6.92265 18.1731V17.3081C6.92265 15.397 7.59886 13.7655 8.95118 12.4132C10.3034 11.0613 11.9352 10.3851 13.8461 10.3851H15.5768C16.0455 10.3851 16.451 10.2137 16.7937 9.87132C17.1362 9.52872 17.3074 9.12322 17.3074 8.65445V5.1926C17.3074 4.72392 17.1361 4.31804 16.7937 3.97544C16.4511 3.6333 16.0456 3.46167 15.5768 3.46167H13.8461C11.971 3.46167 10.182 3.8271 8.47805 4.55693C6.77431 5.28722 5.30065 6.2744 4.0565 7.51856C2.81244 8.76215 1.82555 10.2359 1.09535 11.9398C0.365147 13.6436 0 15.433 0 17.308V36.346C0 37.7891 0.504576 39.0144 1.5142 40.0244C2.52392 41.0339 3.75017 41.5385 5.19239 41.5385H15.5774C17.0196 41.5385 18.2454 41.0339 19.2553 40.0244C20.2647 39.0144 20.7696 37.7891 20.7696 36.346V25.9619C20.7696 24.5191 20.2647 23.2938 19.2546 22.2837C18.2452 21.2744 17.0189 20.7695 15.5768 20.7695Z" fill="#8F453F"/>
<path d="M43.4875 22.2837C42.4781 21.2744 41.2522 20.7695 39.8097 20.7695H33.752C33.0312 20.7695 32.4175 20.5172 31.9135 20.0123C31.4084 19.5074 31.1563 18.8945 31.1563 18.1731V17.3081C31.1563 15.397 31.8325 13.7655 33.1842 12.4132C34.5359 11.0613 36.1676 10.3851 38.0795 10.3851H39.8098C40.2785 10.3851 40.6843 10.2137 41.0267 9.87132C41.369 9.52872 41.5409 9.12322 41.5409 8.65445V5.1926C41.5409 4.72392 41.3691 4.31804 41.0267 3.97544C40.6844 3.6333 40.2786 3.46167 39.8098 3.46167H38.0795C36.2033 3.46167 34.4147 3.8271 32.7103 4.55693C31.0068 5.28722 29.5336 6.2744 28.2895 7.51856C27.0453 8.76215 26.058 10.2359 25.3281 11.9398C24.598 13.6436 24.2324 15.433 24.2324 17.308V36.346C24.2324 37.7891 24.7375 39.0144 25.7468 40.0244C26.7562 41.0339 27.9822 41.5385 29.4246 41.5385H39.8091C41.2516 41.5385 42.4775 41.0339 43.4868 40.0244C44.4969 39.0144 45.0009 37.7891 45.0009 36.346V25.9619C45.001 24.519 44.4969 23.2938 43.4875 22.2837Z" fill="#8F453F"/>
</g>
<defs>
<clipPath id="clip0_879_208">
<rect width="45" height="45" fill="white"/>
</clipPath>
</defs>
</svg>
