<svg width="30" height="30" viewBox="0 0 30 30" fill="none" xmlns="http://www.w3.org/2000/svg">
<g clip-path="url(#clip0_349_32)">
<path d="M15 28.9294C22.6925 28.9294 28.9286 22.6934 28.9286 15.0008C28.9286 7.3083 22.6925 1.07227 15 1.07227C7.30746 1.07227 1.07143 7.3083 1.07143 15.0008C1.07143 22.6934 7.30746 28.9294 15 28.9294Z" stroke="white" stroke-width="1.5" stroke-linecap="round" stroke-linejoin="round"/>
<path d="M15 1.07227C15 1.07227 6.27857 8.76512 15 15.0008C22.5 20.358 15 28.9294 15 28.9294" stroke="white" stroke-width="1.5" stroke-linecap="round" stroke-linejoin="round"/>
<path d="M19.2857 11.7857C20.4692 11.7857 21.4286 10.8263 21.4286 9.64286C21.4286 8.45939 20.4692 7.5 19.2857 7.5C18.1022 7.5 17.1429 8.45939 17.1429 9.64286C17.1429 10.8263 18.1022 11.7857 19.2857 11.7857Z" stroke="white" stroke-width="1.5" stroke-linecap="round" stroke-linejoin="round"/>
<path d="M10.7143 22.5006C11.8978 22.5006 12.8571 21.5412 12.8571 20.3577C12.8571 19.1742 11.8978 18.2148 10.7143 18.2148C9.53082 18.2148 8.57143 19.1742 8.57143 20.3577C8.57143 21.5412 9.53082 22.5006 10.7143 22.5006Z" stroke="white" stroke-width="1.5" stroke-linecap="round" stroke-linejoin="round"/>
</g>
<defs>
<clipPath id="clip0_349_32">
<rect width="30" height="30" fill="white"/>
</clipPath>
</defs>
</svg>
