<svg width="24" height="24" viewBox="0 0 24 24" fill="none" xmlns="http://www.w3.org/2000/svg">
<g clip-path="url(#clip0_376_42044)">
<path d="M18.9676 14.8696C18.4762 14.358 17.8836 14.0844 17.2555 14.0844C16.6324 14.0844 16.0347 14.3529 15.5231 14.8645L13.9225 16.4601C13.7908 16.3892 13.6591 16.3233 13.5324 16.2575C13.3501 16.1663 13.1779 16.0802 13.031 15.989C11.5316 15.0367 10.169 13.7957 8.86216 12.19C8.22899 11.3897 7.8035 10.716 7.49451 10.0321C7.90987 9.65223 8.29484 9.25714 8.66968 8.87723C8.81151 8.7354 8.95334 8.58851 9.09517 8.44668C10.1589 7.38295 10.1589 6.00517 9.09517 4.94145L7.71233 3.5586C7.5553 3.40157 7.39321 3.23948 7.24125 3.07739C6.93733 2.76334 6.61821 2.43916 6.28896 2.13523C5.79762 1.64896 5.21004 1.39062 4.59206 1.39062C3.97409 1.39062 3.37637 1.64896 2.86984 2.13523C2.86477 2.1403 2.86477 2.1403 2.85971 2.14536L1.13748 3.88278C0.489117 4.53115 0.119345 5.32135 0.0382993 6.23818C-0.0832695 7.71727 0.352352 9.09504 0.686666 9.99668C1.50725 12.2102 2.73307 14.2617 4.56167 16.4601C6.7803 19.1093 9.44975 21.2013 12.4991 22.6753C13.6641 23.2274 15.2192 23.8808 16.9566 23.9923C17.063 23.9973 17.1744 24.0024 17.2757 24.0024C18.4458 24.0024 19.4285 23.582 20.1984 22.7462C20.2035 22.7361 20.2136 22.731 20.2187 22.7209C20.4821 22.4018 20.786 22.113 21.1051 21.804C21.323 21.5964 21.5458 21.3786 21.7636 21.1506C22.2651 20.6289 22.5285 20.021 22.5285 19.398C22.5285 18.7699 22.26 18.1671 21.7484 17.6606L18.9676 14.8696ZM20.781 20.2034C20.7759 20.2034 20.7759 20.2085 20.781 20.2034C20.5834 20.4161 20.3808 20.6086 20.163 20.8214C19.8337 21.1354 19.4994 21.4647 19.1854 21.8344C18.6738 22.3815 18.071 22.6398 17.2808 22.6398C17.2048 22.6398 17.1238 22.6398 17.0478 22.6348C15.5434 22.5385 14.1453 21.9509 13.0968 21.4495C10.2298 20.0616 7.71233 18.0911 5.62033 15.5939C3.89304 13.512 2.73814 11.5872 1.97327 9.52053C1.50219 8.25926 1.32997 7.27658 1.40595 6.34962C1.4566 5.75697 1.68454 5.26563 2.10497 4.8452L3.83226 3.11791C4.08046 2.88491 4.34386 2.75827 4.60219 2.75827C4.92131 2.75827 5.17964 2.95076 5.34174 3.11285C5.3468 3.11791 5.35187 3.12298 5.35693 3.12805C5.66592 3.41677 5.95971 3.71563 6.2687 4.03475C6.42572 4.19684 6.58781 4.35893 6.74991 4.52609L8.13275 5.90893C8.66968 6.44586 8.66968 6.94226 8.13275 7.47919C7.98586 7.62609 7.84403 7.77298 7.69713 7.91481C7.27164 8.35044 6.86641 8.75566 6.42572 9.15076C6.41559 9.16089 6.40546 9.16596 6.4004 9.17609C5.96478 9.61171 6.04582 10.0372 6.137 10.3259C6.14206 10.3411 6.14713 10.3563 6.15219 10.3715C6.51183 11.2428 7.01837 12.0633 7.78831 13.041L7.79337 13.046C9.19141 14.7683 10.6654 16.1106 12.2914 17.1388C12.4991 17.2705 12.7118 17.3769 12.9145 17.4782C13.0968 17.5694 13.269 17.6555 13.4159 17.7467C13.4362 17.7568 13.4564 17.772 13.4767 17.7821C13.6489 17.8683 13.811 17.9088 13.9782 17.9088C14.3986 17.9088 14.662 17.6454 14.7481 17.5593L16.4805 15.8269C16.6527 15.6547 16.9262 15.447 17.2453 15.447C17.5594 15.447 17.8177 15.6446 17.9748 15.8168C17.9798 15.8218 17.9798 15.8218 17.9849 15.8269L20.7759 18.6179C21.2976 19.1346 21.2976 19.6665 20.781 20.2034Z" fill="#8F453F"/>
<path d="M12.9702 5.7081C14.2973 5.93098 15.5028 6.55909 16.4653 7.5215C17.4277 8.48392 18.0507 9.68948 18.2787 11.0166C18.3344 11.3509 18.6231 11.5839 18.9524 11.5839C18.9929 11.5839 19.0283 11.5789 19.0689 11.5738C19.4437 11.513 19.6919 11.1584 19.6311 10.7836C19.3576 9.17788 18.5978 7.71399 17.4378 6.55402C16.2778 5.39405 14.814 4.63425 13.2082 4.36072C12.8334 4.29993 12.4839 4.54814 12.418 4.91791C12.3522 5.28768 12.5953 5.64732 12.9702 5.7081Z" fill="#8F453F"/>
<path d="M23.9721 10.5869C23.5213 7.94279 22.2752 5.53674 20.3605 3.62203C18.4458 1.70732 16.0398 0.461243 13.3957 0.0104253C13.0259 -0.0554245 12.6764 0.197844 12.6105 0.567615C12.5497 0.942452 12.7979 1.29196 13.1728 1.35781C15.5332 1.75798 17.686 2.87742 19.3981 4.58445C21.1102 6.29654 22.2246 8.44932 22.6248 10.8098C22.6805 11.1441 22.9692 11.3771 23.2984 11.3771C23.339 11.3771 23.3744 11.372 23.415 11.367C23.7847 11.3113 24.038 10.9567 23.9721 10.5869Z" fill="#8F453F"/>
</g>
<defs>
<clipPath id="clip0_376_42044">
<rect width="24" height="24" fill="white"/>
</clipPath>
</defs>
</svg>
