<svg width="159" height="50" viewBox="0 0 159 50" fill="none" xmlns="http://www.w3.org/2000/svg">
<circle cx="25" cy="25" r="25" fill="#8F453F"/>
<path d="M39.9951 24.8107C39.9334 19.4126 36.9516 14.4498 32.2076 11.8468C31.8871 11.6574 31.4713 11.6715 31.1631 11.9171C31.0561 12.002 28.5433 14.0386 28.1584 17.5554C28.155 17.5859 28.1541 17.6168 28.151 17.6473C27.416 17.527 26.6727 17.4515 25.9266 17.4164V10.9349C25.9266 10.9312 25.9275 10.9278 25.9275 10.9242C25.9275 10.4137 25.5139 10 25.0034 10C22.4902 10 20.0079 10.633 17.8269 11.8291C17.8254 11.83 17.8238 11.8306 17.8226 11.8313C17.822 11.8316 17.8217 11.8319 17.8211 11.8322C13.0637 14.426 10.0703 19.3989 10.0043 24.8141C10.0006 24.8779 10 24.9406 10 25.0002C10 31.7065 14.5042 37.643 20.9553 39.4437C20.9987 39.4571 21.0445 39.4699 21.1053 39.4861C21.1093 39.4874 21.1136 39.4867 21.1176 39.4877C21.1448 39.4953 21.1729 39.506 21.1997 39.513C21.2795 39.5344 21.3595 39.5445 21.4383 39.5445C21.8468 39.5445 22.2208 39.2717 22.3307 38.858C22.4621 38.3649 22.1691 37.8583 21.6757 37.727C20.2887 37.3573 17.95 35.6544 17.094 33.0254C16.3174 30.6412 16.9702 28.0675 18.9817 25.5837C19.034 25.5192 19.0783 25.4548 19.129 25.3903C19.2879 25.189 19.4446 24.9876 19.5897 24.786C19.6664 24.6797 19.7345 24.5734 19.8075 24.467C19.9193 24.3036 20.0315 24.1401 20.1344 23.9767C20.2071 23.8612 20.2728 23.746 20.3409 23.6305C20.432 23.4762 20.5221 23.322 20.6055 23.1674C20.6697 23.0479 20.7293 22.9285 20.7888 22.8093C20.864 22.6587 20.9364 22.5081 21.0036 22.3578C21.0577 22.2368 21.109 22.1161 21.1582 21.9954C21.2193 21.8457 21.2755 21.696 21.329 21.5463C21.3717 21.4262 21.4142 21.3062 21.4521 21.1861C21.5004 21.0337 21.5416 20.8815 21.5819 20.7294C21.6125 20.6133 21.6452 20.4972 21.6711 20.3811C21.7078 20.2179 21.7356 20.0551 21.7628 19.8926C21.7802 19.7887 21.8019 19.6848 21.8156 19.5812C21.8178 19.5654 21.8218 19.5495 21.8239 19.5333C21.8752 19.5238 21.9262 19.5122 21.9776 19.5033C22.189 19.4667 22.4022 19.4367 22.6158 19.4077C22.7493 19.3894 22.8822 19.3677 23.016 19.3527C23.3588 19.3142 23.7037 19.2846 24.0505 19.266C24.0599 19.2653 24.0691 19.2656 24.0783 19.2653V38.8308C24.0783 38.8345 24.0792 38.8378 24.0795 38.8415V39.0758C24.0795 39.5863 24.4932 40 25.0037 40C25.6159 40 26.2398 39.9615 26.8636 39.8851C26.8658 39.8848 26.8679 39.8845 26.87 39.8842C27.1175 39.8738 27.3799 39.8359 27.6573 39.766C27.6579 39.7657 27.6589 39.7657 27.6595 39.7657C34.8118 38.4865 40 32.2824 40 25.0002C39.9991 24.9412 39.9988 24.8749 39.9951 24.8107ZM31.8706 13.7936C34.9749 15.6991 37.1306 18.79 37.8666 22.2957C35.6037 20.2848 32.8871 18.8107 29.9734 18.0369C30.011 17.4772 30.1173 16.9251 30.3021 16.3828C30.7149 15.1711 31.4139 14.2827 31.8706 13.7936ZM32.3289 33.3728C31.1279 35.8905 28.6924 37.5577 27.2978 37.9521C27.2822 37.9549 27.2666 37.9579 27.251 37.9619C27.0436 37.9949 26.8337 38.0248 26.632 38.0508C26.3977 38.0795 26.1622 38.1021 25.9275 38.1186V19.265C26.6828 19.3044 27.434 19.3967 28.1761 19.5327C28.4272 21.5283 29.3789 23.5554 31.0201 25.5825C33.118 28.1741 33.5583 30.7948 32.3289 33.3728ZM24.0777 17.4158C23.3255 17.4509 22.5791 17.5267 21.845 17.647C21.6327 15.4825 20.6193 13.8703 19.8219 12.9171C21.1661 12.3399 22.6069 11.9871 24.0774 11.8835V17.4158H24.0777ZM18.1342 13.7917C18.778 14.4733 19.8922 15.9435 20.0275 18.0372C17.1086 18.8138 14.3923 20.2882 12.1337 22.2982C12.8715 18.7878 15.0284 15.6951 18.1342 13.7917ZM15.3354 33.5976C15.3914 33.7696 15.4546 33.9377 15.5203 34.1039C13.2708 31.756 11.9042 28.5967 11.8523 25.199C13.9863 22.7665 16.7817 20.9579 19.8579 20.0096C19.5283 21.4461 18.7566 22.9236 17.5434 24.4197C17.4294 24.5611 17.3155 24.7066 17.2095 24.848C17.1975 24.8642 17.1899 24.8819 17.1789 24.8984C14.5038 28.4806 14.681 31.5886 15.3354 33.5976ZM33.5259 35.0268C33.6958 34.7473 33.8568 34.4629 33.997 34.169C35.0715 31.9164 35.6764 28.3966 32.4563 24.4194C31.2352 22.911 30.4641 21.4369 30.1372 20.0074C33.2076 20.9521 36.0042 22.7589 38.1462 25.1914C38.0906 29.0986 36.3342 32.6374 33.5259 35.0268Z" fill="white"/>
<path d="M77.5273 15.5391V33H75.0664L66.2188 20.2031H66.043V33H63.4062V15.5391H65.8438L74.7266 28.3594H74.8906V15.5391H77.5273ZM85.8008 33.2695C84.5195 33.2695 83.4102 32.9922 82.4727 32.4375C81.5352 31.8828 80.8125 31.1016 80.3047 30.0938C79.8047 29.0781 79.5547 27.8945 79.5547 26.543C79.5547 25.1992 79.8008 24.0156 80.293 22.9922C80.793 21.9688 81.4922 21.1719 82.3906 20.6016C83.2969 20.0234 84.3594 19.7344 85.5781 19.7344C86.3203 19.7344 87.0391 19.8555 87.7344 20.0977C88.4297 20.3398 89.0547 20.7227 89.6094 21.2461C90.1641 21.7695 90.6016 22.4492 90.9219 23.2852C91.25 24.1211 91.4141 25.1289 91.4141 26.3086V27.2227H80.9961V25.3125H90.1016L88.918 25.9453C88.918 25.1406 88.793 24.4297 88.543 23.8125C88.293 23.1953 87.918 22.7148 87.418 22.3711C86.9258 22.0195 86.3125 21.8438 85.5781 21.8438C84.8438 21.8438 84.2148 22.0195 83.6914 22.3711C83.1758 22.7227 82.7812 23.1875 82.5078 23.7656C82.2344 24.3438 82.0977 24.9766 82.0977 25.6641V26.9648C82.0977 27.8633 82.2539 28.625 82.5664 29.25C82.8789 29.875 83.3125 30.3516 83.8672 30.6797C84.4297 31.0078 85.082 31.1719 85.8242 31.1719C86.3086 31.1719 86.7461 31.1016 87.1367 30.9609C87.5352 30.8203 87.8789 30.6094 88.168 30.3281C88.457 30.0469 88.6758 29.6992 88.8242 29.2852L91.2383 29.7422C91.043 30.4453 90.6992 31.0625 90.207 31.5938C89.7148 32.125 89.0938 32.5391 88.3438 32.8359C87.6016 33.125 86.7539 33.2695 85.8008 33.2695ZM98.6914 33.2695C97.4648 33.2695 96.3906 32.9883 95.4688 32.4258C94.5547 31.8633 93.8438 31.0742 93.3359 30.0586C92.8359 29.043 92.5859 27.8633 92.5859 26.5195C92.5859 25.1602 92.8359 23.9727 93.3359 22.957C93.8438 21.9336 94.5547 21.1406 95.4688 20.5781C96.3906 20.0156 97.4648 19.7344 98.6914 19.7344C99.9258 19.7344 101 20.0156 101.914 20.5781C102.828 21.1406 103.539 21.9336 104.047 22.957C104.555 23.9727 104.809 25.1602 104.809 26.5195C104.809 27.8633 104.555 29.043 104.047 30.0586C103.539 31.0742 102.828 31.8633 101.914 32.4258C101 32.9883 99.9258 33.2695 98.6914 33.2695ZM98.6914 31.125C99.4961 31.125 100.16 30.9141 100.684 30.4922C101.207 30.0703 101.594 29.5117 101.844 28.8164C102.102 28.1133 102.23 27.3477 102.23 26.5195C102.23 25.6758 102.102 24.9023 101.844 24.1992C101.594 23.4961 101.207 22.9336 100.684 22.5117C100.16 22.0898 99.4961 21.8789 98.6914 21.8789C97.8945 21.8789 97.2344 22.0898 96.7109 22.5117C96.1953 22.9336 95.8086 23.4961 95.5508 24.1992C95.293 24.9023 95.1641 25.6758 95.1641 26.5195C95.1641 27.3477 95.293 28.1133 95.5508 28.8164C95.8086 29.5117 96.1953 30.0703 96.7109 30.4922C97.2344 30.9141 97.8945 31.125 98.6914 31.125ZM111.523 33.2578C110.461 33.2578 109.516 32.9883 108.688 32.4492C107.859 31.9023 107.211 31.125 106.742 30.1172C106.273 29.1016 106.039 27.8906 106.039 26.4844C106.039 25.0625 106.277 23.8477 106.754 22.8398C107.23 21.832 107.883 21.0625 108.711 20.5312C109.539 20 110.477 19.7344 111.523 19.7344C112.344 19.7344 113 19.8711 113.492 20.1445C113.992 20.4102 114.379 20.7227 114.652 21.082C114.934 21.4414 115.148 21.7578 115.297 22.0312H115.449V15.5391H117.98V33H115.508V30.9609H115.297C115.148 31.2344 114.93 31.5508 114.641 31.9102C114.352 32.2695 113.957 32.5859 113.457 32.8594C112.965 33.125 112.32 33.2578 111.523 33.2578ZM112.074 31.0898C112.809 31.0898 113.43 30.8945 113.938 30.5039C114.445 30.1133 114.828 29.5703 115.086 28.875C115.352 28.1797 115.484 27.375 115.484 26.4609C115.484 25.5469 115.355 24.75 115.098 24.0703C114.84 23.3828 114.457 22.8516 113.949 22.4766C113.441 22.0938 112.816 21.9023 112.074 21.9023C111.309 21.9023 110.672 22.1016 110.164 22.5C109.656 22.8984 109.273 23.4414 109.016 24.1289C108.758 24.8164 108.629 25.5938 108.629 26.4609C108.629 27.3359 108.758 28.125 109.016 28.8281C109.273 29.5234 109.656 30.0742 110.164 30.4805C110.68 30.8867 111.316 31.0898 112.074 31.0898ZM128.727 27.5859V19.8984H131.258V33H128.773V30.7266H128.633C128.32 31.4219 127.836 32.0039 127.18 32.4727C126.523 32.9414 125.703 33.1719 124.719 33.1641C123.875 33.1641 123.129 32.9805 122.48 32.6133C121.84 32.2461 121.336 31.6953 120.969 30.9609C120.609 30.2266 120.43 29.3164 120.43 28.2305V19.8984H122.961V27.9375C122.961 28.8203 123.211 29.5273 123.711 30.0586C124.211 30.5898 124.855 30.8516 125.645 30.8438C126.121 30.8438 126.594 30.7266 127.062 30.4922C127.539 30.2578 127.934 29.8984 128.246 29.4141C128.566 28.9297 128.727 28.3203 128.727 27.5859ZM136.227 25.2305V33H133.695V19.8984H136.156V22.0547H136.332C136.629 21.3438 137.094 20.7812 137.727 20.3672C138.359 19.9453 139.172 19.7344 140.164 19.7344C141.055 19.7344 141.832 19.9219 142.496 20.2969C143.168 20.6641 143.688 21.2148 144.055 21.9492C144.43 22.6836 144.617 23.5938 144.617 24.6797V33H142.086V24.9844C142.086 24.0391 141.836 23.2969 141.336 22.7578C140.836 22.2109 140.156 21.9375 139.297 21.9375C138.711 21.9375 138.184 22.0703 137.715 22.3359C137.254 22.5938 136.891 22.9648 136.625 23.4492C136.359 23.9336 136.227 24.5273 136.227 25.2305ZM149.398 28.5586L149.363 25.4531H149.82L155.035 19.8984H158.082L152.141 26.2266H151.719L149.398 28.5586ZM147.055 33V15.5391H149.586V33H147.055ZM155.305 33L150.617 26.7891L152.375 24.9961L158.445 33H155.305Z" fill="white"/>
</svg>
